<?xml version="1.0" encoding="UTF-8"?>
<svg version="1.1" xmlns="http://www.w3.org/2000/svg" width="48" height="48">
<path d="M0 0 C1.32 0.33 2.64 0.66 4 1 C4.07863281 1.63421875 4.15726563 2.2684375 4.23828125 2.921875 C4.61533203 3.95054688 4.61533203 3.95054688 5 5 C6.89487718 5.84900907 6.89487718 5.84900907 9.1875 6.25 C14.0591492 7.65857589 16.11581886 9.90273709 19.00390625 13.96484375 C20 16 20 16 20 20 C18.0625 19.6875 18.0625 19.6875 16 19 C15.67 18.01 15.34 17.02 15 16 C14.34 16 13.68 16 13 16 C13.24556641 16.79664063 13.24556641 16.79664063 13.49609375 17.609375 C14.11356377 20.53876764 14.09501925 23.25822936 14.0625 26.25 C14.05347656 27.32765625 14.04445313 28.4053125 14.03515625 29.515625 C14.02355469 30.33546875 14.01195313 31.1553125 14 32 C17.3527445 30.10596666 19.77163284 28.16117202 22 25 C23.30450201 19.7993497 23.10229177 14.32556528 23 9 C26.96 9 30.92 9 35 9 C35 11.64 35 14.28 35 17 C31.7 17 28.4 17 25 17 C25.20059999 22.9597611 26.0221364 25.80640843 30.35351562 29.91992188 C30.91748047 30.42072266 31.48144531 30.92152344 32.0625 31.4375 C34.04896833 33.28417147 36.02640446 35.13952155 38 37 C38 37.33 38 37.66 38 38 C23.48 38 8.96 38 -6 38 C-4 34 -4 34 -1.5625 32.75 C1 32 1 32 4 32 C3.97679687 31.24976562 3.95359375 30.49953125 3.9296875 29.7265625 C3.80880364 22.87072063 4.35063873 16.65635083 6 10 C5.38125 9.731875 4.7625 9.46375 4.125 9.1875 C2 8 2 8 0 5 C-0.125 2.3125 -0.125 2.3125 0 0 Z M8 30 C8 30.66 8 31.32 8 32 C8.66 32 9.32 32 10 32 C10 31.34 10 30.68 10 30 C9.34 30 8.68 30 8 30 Z " fill="#8CA1AB" transform="translate(8,5)"/>
<path d="M0 0 C1.32 0.33 2.64 0.66 4 1 C4.07863281 1.63421875 4.15726563 2.2684375 4.23828125 2.921875 C4.48964844 3.60765625 4.74101562 4.2934375 5 5 C6.89487718 5.84900907 6.89487718 5.84900907 9.1875 6.25 C14.0591492 7.65857589 16.11581886 9.90273709 19.00390625 13.96484375 C20 16 20 16 20 20 C18.0625 19.6875 18.0625 19.6875 16 19 C15.67 18.01 15.34 17.02 15 16 C14.34 16 13.68 16 13 16 C13.16371094 16.53109375 13.32742187 17.0621875 13.49609375 17.609375 C14.11356377 20.53876764 14.09501925 23.25822936 14.0625 26.25 C14.05347656 27.32765625 14.04445313 28.4053125 14.03515625 29.515625 C14.02355469 30.33546875 14.01195312 31.1553125 14 32 C12.68 32 11.36 32 10 32 C10 31.34 10 30.68 10 30 C9.34 30 8.68 30 8 30 C8 30.66 8 31.32 8 32 C6.68 32 5.36 32 4 32 C3.76423264 24.37685526 4.16282685 17.41430591 6 10 C5.38125 9.731875 4.7625 9.46375 4.125 9.1875 C2 8 2 8 0 5 C-0.125 2.3125 -0.125 2.3125 0 0 Z " fill="#607C8A" transform="translate(8,5)"/>
<path d="M0 0 C3.96 0 7.92 0 12 0 C12 2.64 12 5.28 12 8 C8.7 8 5.4 8 2 8 C2 10.64 2 13.28 2 16 C1.34 16 0.68 16 0 16 C0 10.72 0 5.44 0 0 Z " fill="#D93F35" transform="translate(31,14)"/>
<path d="M0 0 C3.91424731 2.00485838 6.63236856 5.07837798 9.5625 8.3125 C7.5625 9.3125 7.5625 9.3125 5.6875 8.75 C2.98014326 8.19260302 1.87384891 8.90918102 -0.4375 10.3125 C-1.015 9.838125 -1.5925 9.36375 -2.1875 8.875 C-4.39048751 7.34514756 -5.86520302 6.86911048 -8.4375 6.3125 C-3.4905 0.4475 -3.4905 0.4475 0 0 Z " fill="#A3DDF7" transform="translate(32.4375,29.6875)"/>
<path d="M0 0 C0.7425 0.53625 1.485 1.0725 2.25 1.625 C3.1575 2.07875 4.065 2.5325 5 3 C5.61875 2.67 6.2375 2.34 6.875 2 C9 1 9 1 12.625 2.1875 C16 4 16 4 18 7 C15.22890693 7.05392397 12.45886182 7.09363455 9.6875 7.125 C8.90181641 7.14175781 8.11613281 7.15851562 7.30664062 7.17578125 C6.54931641 7.18222656 5.79199219 7.18867187 5.01171875 7.1953125 C3.96697388 7.21102295 3.96697388 7.21102295 2.90112305 7.22705078 C1 7 1 7 -2 5 C-1.34 3.35 -0.68 1.7 0 0 Z " fill="#8FA4AE" transform="translate(28,36)"/>
<path d="M0 0 C1.98 0 3.96 0 6 0 C6 1.98 6 3.96 6 6 C4.02 6 2.04 6 0 6 C0 4.02 0 2.04 0 0 Z " fill="#FFB54D" transform="translate(17,5)"/>
<path d="M0 0 C2 1.25 2 1.25 4 3 C4 4.32 4 5.64 4 7 C1.83125748 6.49396008 0.00032373 6.00016187 -2 5 C-1.34 3.35 -0.68 1.7 0 0 Z " fill="#7A93A0" transform="translate(28,36)"/>
<path d="M0 0 C5.53846154 0.49230769 5.53846154 0.49230769 7.875 3.0625 C8.431875 4.0215625 8.431875 4.0215625 9 5 C6.75 5.3125 6.75 5.3125 4 5 C1.6875 2.5 1.6875 2.5 0 0 Z " fill="#7A929E" transform="translate(37,38)"/>
<path d="M0 0 C1.12894876 0.93274109 2.25300876 1.87140122 3.375 2.8125 C4.00148438 3.33457031 4.62796875 3.85664062 5.2734375 4.39453125 C7 6 7 6 9 9 C5.30712847 8.09729807 3.44631711 7.59508949 1.125 4.5 C0 2 0 2 0 0 Z " fill="#85CAEA" transform="translate(33,30)"/>
</svg>
